<mxfile host="app.diagrams.net" modified="2020-08-23T21:24:45.285Z" agent="5.0 (Windows NT 10.0; Win64; x64) AppleWebKit/537.36 (KHTML, like Gecko) Chrome/84.0.4147.135 Safari/537.36 Edg/84.0.522.63" etag="8L0ouKbqelj0Zlopep75" version="13.6.4" type="github">
  <diagram id="VAfjL4Ko3vqLrz3MWLIX" name="Page-1">
    <mxGraphModel dx="1422" dy="762" grid="1" gridSize="10" guides="1" tooltips="1" connect="1" arrows="1" fold="1" page="1" pageScale="1" pageWidth="827" pageHeight="1169" math="0" shadow="0">
      <root>
        <mxCell id="0" />
        <mxCell id="1" parent="0" />
        <mxCell id="d7y4QSRxkWDRFG17XPN2-3" value="" style="edgeStyle=orthogonalEdgeStyle;rounded=0;orthogonalLoop=1;jettySize=auto;html=1;" edge="1" parent="1" target="d7y4QSRxkWDRFG17XPN2-2">
          <mxGeometry relative="1" as="geometry">
            <mxPoint x="340" y="210" as="sourcePoint" />
          </mxGeometry>
        </mxCell>
        <mxCell id="d7y4QSRxkWDRFG17XPN2-5" value="" style="edgeStyle=orthogonalEdgeStyle;rounded=0;orthogonalLoop=1;jettySize=auto;html=1;" edge="1" parent="1" source="d7y4QSRxkWDRFG17XPN2-2" target="d7y4QSRxkWDRFG17XPN2-4">
          <mxGeometry relative="1" as="geometry" />
        </mxCell>
        <mxCell id="d7y4QSRxkWDRFG17XPN2-7" value="" style="edgeStyle=orthogonalEdgeStyle;rounded=0;orthogonalLoop=1;jettySize=auto;html=1;" edge="1" parent="1" source="d7y4QSRxkWDRFG17XPN2-2" target="d7y4QSRxkWDRFG17XPN2-6">
          <mxGeometry relative="1" as="geometry" />
        </mxCell>
        <mxCell id="d7y4QSRxkWDRFG17XPN2-2" value="is divisible by 4?" style="rounded=0;whiteSpace=wrap;html=1;" vertex="1" parent="1">
          <mxGeometry x="280" y="300" width="120" height="60" as="geometry" />
        </mxCell>
        <mxCell id="d7y4QSRxkWDRFG17XPN2-38" style="edgeStyle=orthogonalEdgeStyle;rounded=0;orthogonalLoop=1;jettySize=auto;html=1;exitX=0.5;exitY=1;exitDx=0;exitDy=0;entryX=0.5;entryY=0;entryDx=0;entryDy=0;" edge="1" parent="1" source="d7y4QSRxkWDRFG17XPN2-4" target="d7y4QSRxkWDRFG17XPN2-36">
          <mxGeometry relative="1" as="geometry" />
        </mxCell>
        <mxCell id="d7y4QSRxkWDRFG17XPN2-4" value="no&lt;br&gt;" style="whiteSpace=wrap;html=1;rounded=0;" vertex="1" parent="1">
          <mxGeometry x="80" y="300" width="120" height="60" as="geometry" />
        </mxCell>
        <mxCell id="d7y4QSRxkWDRFG17XPN2-11" value="" style="edgeStyle=orthogonalEdgeStyle;rounded=0;orthogonalLoop=1;jettySize=auto;html=1;" edge="1" parent="1" source="d7y4QSRxkWDRFG17XPN2-6" target="d7y4QSRxkWDRFG17XPN2-10">
          <mxGeometry relative="1" as="geometry" />
        </mxCell>
        <mxCell id="d7y4QSRxkWDRFG17XPN2-6" value="yes" style="rounded=0;whiteSpace=wrap;html=1;" vertex="1" parent="1">
          <mxGeometry x="480" y="300" width="120" height="60" as="geometry" />
        </mxCell>
        <mxCell id="d7y4QSRxkWDRFG17XPN2-13" value="" style="edgeStyle=orthogonalEdgeStyle;rounded=0;orthogonalLoop=1;jettySize=auto;html=1;" edge="1" parent="1" source="d7y4QSRxkWDRFG17XPN2-10" target="d7y4QSRxkWDRFG17XPN2-12">
          <mxGeometry relative="1" as="geometry" />
        </mxCell>
        <mxCell id="d7y4QSRxkWDRFG17XPN2-16" value="" style="edgeStyle=orthogonalEdgeStyle;rounded=0;orthogonalLoop=1;jettySize=auto;html=1;" edge="1" parent="1" source="d7y4QSRxkWDRFG17XPN2-10" target="d7y4QSRxkWDRFG17XPN2-15">
          <mxGeometry relative="1" as="geometry" />
        </mxCell>
        <mxCell id="d7y4QSRxkWDRFG17XPN2-10" value="is divisible by 100" style="whiteSpace=wrap;html=1;rounded=0;" vertex="1" parent="1">
          <mxGeometry x="480" y="440" width="120" height="60" as="geometry" />
        </mxCell>
        <mxCell id="d7y4QSRxkWDRFG17XPN2-27" style="edgeStyle=orthogonalEdgeStyle;rounded=0;orthogonalLoop=1;jettySize=auto;html=1;exitX=0.5;exitY=1;exitDx=0;exitDy=0;entryX=0.5;entryY=0;entryDx=0;entryDy=0;" edge="1" parent="1" source="d7y4QSRxkWDRFG17XPN2-12" target="d7y4QSRxkWDRFG17XPN2-25">
          <mxGeometry relative="1" as="geometry" />
        </mxCell>
        <mxCell id="d7y4QSRxkWDRFG17XPN2-12" value="yes" style="whiteSpace=wrap;html=1;rounded=0;" vertex="1" parent="1">
          <mxGeometry x="680" y="440" width="120" height="60" as="geometry" />
        </mxCell>
        <mxCell id="d7y4QSRxkWDRFG17XPN2-24" style="edgeStyle=orthogonalEdgeStyle;rounded=0;orthogonalLoop=1;jettySize=auto;html=1;exitX=0.5;exitY=1;exitDx=0;exitDy=0;" edge="1" parent="1" source="d7y4QSRxkWDRFG17XPN2-15" target="d7y4QSRxkWDRFG17XPN2-20">
          <mxGeometry relative="1" as="geometry" />
        </mxCell>
        <mxCell id="d7y4QSRxkWDRFG17XPN2-15" value="no" style="whiteSpace=wrap;html=1;rounded=0;" vertex="1" parent="1">
          <mxGeometry x="280" y="445" width="120" height="50" as="geometry" />
        </mxCell>
        <mxCell id="d7y4QSRxkWDRFG17XPN2-20" value="is a leap year" style="ellipse;whiteSpace=wrap;html=1;" vertex="1" parent="1">
          <mxGeometry x="280" y="585" width="120" height="80" as="geometry" />
        </mxCell>
        <mxCell id="d7y4QSRxkWDRFG17XPN2-31" value="" style="edgeStyle=orthogonalEdgeStyle;rounded=0;orthogonalLoop=1;jettySize=auto;html=1;" edge="1" parent="1" source="d7y4QSRxkWDRFG17XPN2-25" target="d7y4QSRxkWDRFG17XPN2-30">
          <mxGeometry relative="1" as="geometry" />
        </mxCell>
        <mxCell id="d7y4QSRxkWDRFG17XPN2-34" value="" style="edgeStyle=orthogonalEdgeStyle;rounded=0;orthogonalLoop=1;jettySize=auto;html=1;" edge="1" parent="1" source="d7y4QSRxkWDRFG17XPN2-25" target="d7y4QSRxkWDRFG17XPN2-33">
          <mxGeometry relative="1" as="geometry" />
        </mxCell>
        <mxCell id="d7y4QSRxkWDRFG17XPN2-25" value="is divisible by 400" style="whiteSpace=wrap;html=1;rounded=0;" vertex="1" parent="1">
          <mxGeometry x="680" y="595" width="120" height="60" as="geometry" />
        </mxCell>
        <mxCell id="d7y4QSRxkWDRFG17XPN2-32" value="" style="edgeStyle=orthogonalEdgeStyle;rounded=0;orthogonalLoop=1;jettySize=auto;html=1;" edge="1" parent="1" source="d7y4QSRxkWDRFG17XPN2-30" target="d7y4QSRxkWDRFG17XPN2-20">
          <mxGeometry relative="1" as="geometry" />
        </mxCell>
        <mxCell id="d7y4QSRxkWDRFG17XPN2-30" value="yes" style="whiteSpace=wrap;html=1;rounded=0;" vertex="1" parent="1">
          <mxGeometry x="480" y="595" width="120" height="60" as="geometry" />
        </mxCell>
        <mxCell id="d7y4QSRxkWDRFG17XPN2-37" style="edgeStyle=orthogonalEdgeStyle;rounded=0;orthogonalLoop=1;jettySize=auto;html=1;exitX=0;exitY=0.5;exitDx=0;exitDy=0;" edge="1" parent="1" source="d7y4QSRxkWDRFG17XPN2-33" target="d7y4QSRxkWDRFG17XPN2-36">
          <mxGeometry relative="1" as="geometry" />
        </mxCell>
        <mxCell id="d7y4QSRxkWDRFG17XPN2-33" value="no" style="whiteSpace=wrap;html=1;rounded=0;" vertex="1" parent="1">
          <mxGeometry x="680" y="735" width="120" height="60" as="geometry" />
        </mxCell>
        <mxCell id="d7y4QSRxkWDRFG17XPN2-36" value="not a leap year" style="ellipse;whiteSpace=wrap;html=1;" vertex="1" parent="1">
          <mxGeometry x="80" y="725" width="120" height="80" as="geometry" />
        </mxCell>
        <mxCell id="d7y4QSRxkWDRFG17XPN2-40" value="year" style="shape=process;whiteSpace=wrap;html=1;backgroundOutline=1;" vertex="1" parent="1">
          <mxGeometry x="280" y="150" width="120" height="60" as="geometry" />
        </mxCell>
        <mxCell id="d7y4QSRxkWDRFG17XPN2-45" value="" style="edgeStyle=orthogonalEdgeStyle;rounded=0;orthogonalLoop=1;jettySize=auto;html=1;" edge="1" parent="1" source="d7y4QSRxkWDRFG17XPN2-41" target="d7y4QSRxkWDRFG17XPN2-44">
          <mxGeometry relative="1" as="geometry" />
        </mxCell>
        <mxCell id="d7y4QSRxkWDRFG17XPN2-41" value="START" style="rounded=1;whiteSpace=wrap;html=1;" vertex="1" parent="1">
          <mxGeometry x="1050" y="160" width="120" height="40" as="geometry" />
        </mxCell>
        <mxCell id="d7y4QSRxkWDRFG17XPN2-47" value="" style="edgeStyle=orthogonalEdgeStyle;rounded=0;orthogonalLoop=1;jettySize=auto;html=1;" edge="1" parent="1" source="d7y4QSRxkWDRFG17XPN2-44" target="d7y4QSRxkWDRFG17XPN2-46">
          <mxGeometry relative="1" as="geometry" />
        </mxCell>
        <mxCell id="d7y4QSRxkWDRFG17XPN2-53" value="" style="edgeStyle=orthogonalEdgeStyle;rounded=0;orthogonalLoop=1;jettySize=auto;html=1;" edge="1" parent="1" source="d7y4QSRxkWDRFG17XPN2-44" target="d7y4QSRxkWDRFG17XPN2-52">
          <mxGeometry relative="1" as="geometry" />
        </mxCell>
        <mxCell id="d7y4QSRxkWDRFG17XPN2-44" value="divisible&lt;br&gt;by 4?" style="rhombus;whiteSpace=wrap;html=1;rounded=1;" vertex="1" parent="1">
          <mxGeometry x="1070" y="260" width="80" height="80" as="geometry" />
        </mxCell>
        <mxCell id="d7y4QSRxkWDRFG17XPN2-46" value="Not leap" style="whiteSpace=wrap;html=1;rounded=1;" vertex="1" parent="1">
          <mxGeometry x="920" y="350" width="120" height="30" as="geometry" />
        </mxCell>
        <mxCell id="d7y4QSRxkWDRFG17XPN2-48" value="No" style="text;html=1;strokeColor=none;fillColor=none;align=center;verticalAlign=middle;whiteSpace=wrap;rounded=0;" vertex="1" parent="1">
          <mxGeometry x="1010" y="280" width="40" height="20" as="geometry" />
        </mxCell>
        <mxCell id="d7y4QSRxkWDRFG17XPN2-49" value="yes" style="text;html=1;strokeColor=none;fillColor=none;align=center;verticalAlign=middle;whiteSpace=wrap;rounded=0;" vertex="1" parent="1">
          <mxGeometry x="1170" y="280" width="40" height="20" as="geometry" />
        </mxCell>
        <mxCell id="d7y4QSRxkWDRFG17XPN2-55" value="" style="edgeStyle=orthogonalEdgeStyle;rounded=0;orthogonalLoop=1;jettySize=auto;html=1;" edge="1" parent="1" source="d7y4QSRxkWDRFG17XPN2-52" target="d7y4QSRxkWDRFG17XPN2-54">
          <mxGeometry relative="1" as="geometry" />
        </mxCell>
        <mxCell id="d7y4QSRxkWDRFG17XPN2-57" value="" style="edgeStyle=orthogonalEdgeStyle;rounded=0;orthogonalLoop=1;jettySize=auto;html=1;" edge="1" parent="1" source="d7y4QSRxkWDRFG17XPN2-52" target="d7y4QSRxkWDRFG17XPN2-56">
          <mxGeometry relative="1" as="geometry" />
        </mxCell>
        <mxCell id="d7y4QSRxkWDRFG17XPN2-52" value="divisible&lt;br&gt;by 100?" style="rhombus;whiteSpace=wrap;html=1;rounded=1;" vertex="1" parent="1">
          <mxGeometry x="1201" y="350" width="80" height="80" as="geometry" />
        </mxCell>
        <mxCell id="d7y4QSRxkWDRFG17XPN2-54" value="Leap" style="whiteSpace=wrap;html=1;rounded=1;" vertex="1" parent="1">
          <mxGeometry x="1040" y="440" width="120" height="30" as="geometry" />
        </mxCell>
        <mxCell id="d7y4QSRxkWDRFG17XPN2-61" value="" style="edgeStyle=orthogonalEdgeStyle;rounded=0;orthogonalLoop=1;jettySize=auto;html=1;" edge="1" parent="1" source="d7y4QSRxkWDRFG17XPN2-56" target="d7y4QSRxkWDRFG17XPN2-60">
          <mxGeometry relative="1" as="geometry" />
        </mxCell>
        <mxCell id="d7y4QSRxkWDRFG17XPN2-64" value="" style="edgeStyle=orthogonalEdgeStyle;rounded=0;orthogonalLoop=1;jettySize=auto;html=1;" edge="1" parent="1" source="d7y4QSRxkWDRFG17XPN2-56" target="d7y4QSRxkWDRFG17XPN2-62">
          <mxGeometry relative="1" as="geometry" />
        </mxCell>
        <mxCell id="d7y4QSRxkWDRFG17XPN2-56" value="divisible&lt;br&gt;by 400" style="rhombus;whiteSpace=wrap;html=1;rounded=1;" vertex="1" parent="1">
          <mxGeometry x="1340" y="440" width="80" height="80" as="geometry" />
        </mxCell>
        <mxCell id="d7y4QSRxkWDRFG17XPN2-60" value="Not leap" style="whiteSpace=wrap;html=1;rounded=1;" vertex="1" parent="1">
          <mxGeometry x="1210" y="550" width="120" height="30" as="geometry" />
        </mxCell>
        <mxCell id="d7y4QSRxkWDRFG17XPN2-62" value="Leap" style="whiteSpace=wrap;html=1;rounded=1;" vertex="1" parent="1">
          <mxGeometry x="1440" y="550" width="120" height="30" as="geometry" />
        </mxCell>
        <mxCell id="d7y4QSRxkWDRFG17XPN2-66" value="No" style="text;html=1;strokeColor=none;fillColor=none;align=center;verticalAlign=middle;whiteSpace=wrap;rounded=0;" vertex="1" parent="1">
          <mxGeometry x="1140" y="370" width="40" height="20" as="geometry" />
        </mxCell>
        <mxCell id="d7y4QSRxkWDRFG17XPN2-67" value="yes" style="text;html=1;strokeColor=none;fillColor=none;align=center;verticalAlign=middle;whiteSpace=wrap;rounded=0;" vertex="1" parent="1">
          <mxGeometry x="1300" y="370" width="40" height="20" as="geometry" />
        </mxCell>
        <mxCell id="d7y4QSRxkWDRFG17XPN2-68" value="No" style="text;html=1;strokeColor=none;fillColor=none;align=center;verticalAlign=middle;whiteSpace=wrap;rounded=0;" vertex="1" parent="1">
          <mxGeometry x="1290" y="460" width="40" height="20" as="geometry" />
        </mxCell>
        <mxCell id="d7y4QSRxkWDRFG17XPN2-69" value="yes" style="text;html=1;strokeColor=none;fillColor=none;align=center;verticalAlign=middle;whiteSpace=wrap;rounded=0;" vertex="1" parent="1">
          <mxGeometry x="1450" y="460" width="40" height="20" as="geometry" />
        </mxCell>
      </root>
    </mxGraphModel>
  </diagram>
</mxfile>
